<svg width="17" height="18" viewBox="0 0 17 18" fill="none" xmlns="http://www.w3.org/2000/svg">
<path d="M8.3462 0.649652L0.635178 8.36067C0.421371 8.57474 0.42163 8.92164 0.635695 9.13545C0.849761 9.34926 1.19667 9.349 1.41047 9.13493L8.18776 2.35764L8.18807 16.458C8.18789 16.6031 8.24555 16.7422 8.34827 16.8446C8.56143 17.057 8.90644 17.0565 9.11891 16.8434C9.22149 16.7414 9.27911 16.6027 9.27911 16.458L9.27881 2.35704L16.057 9.13524C16.2709 9.349 16.6177 9.34887 16.8315 9.13493C17.0452 8.921 17.0454 8.57392 16.8315 8.36015L9.12067 0.64935C8.90674 0.435587 8.55996 0.435716 8.3462 0.649652Z" fill="#FCFCFC"/>
</svg>
