<svg width="1440" height="800" viewBox="0 0 1440 800" fill="none" xmlns="http://www.w3.org/2000/svg">
<g opacity="0.5" clip-path="url(#clip0_1139_32802)">
<mask id="mask0_1139_32802" style="mask-type:luminance" maskUnits="userSpaceOnUse" x="0" y="0" width="1440" height="1440">
<path d="M1440 0H0V1440H1440V0Z" fill="white"/>
</mask>
<g mask="url(#mask0_1139_32802)">
<path d="M-634.824 299.33C-491.374 221.333 -446.474 303.912 -303.024 225.914C-159.573 147.917 -204.473 65.3383 -61.0648 -12.6365C82.3442 -90.6112 127.286 -8.05473 270.736 -86.0519C414.186 -164.049 369.286 -246.628 512.736 -324.625C656.187 -402.623 701.087 -320.044 844.578 -398.063C988.07 -476.083 943.129 -558.639 1086.58 -636.637" stroke="url(#paint0_linear_1139_32802)" stroke-opacity="0.24" stroke-width="0.72" stroke-miterlimit="10"/>
<path d="M-275.438 960.309C-131.986 882.311 -87.0867 964.89 56.3636 886.893C199.814 808.896 154.914 726.317 298.323 648.342C441.732 570.367 486.674 652.924 630.124 574.927C773.574 496.93 728.674 414.351 872.124 336.353C1015.58 258.356 1060.48 340.935 1203.97 262.915C1347.46 184.896 1302.52 102.339 1445.97 24.3423" stroke="url(#paint1_linear_1139_32802)" stroke-opacity="0.24" stroke-width="0.72" stroke-miterlimit="10"/>
<path d="M-455.133 629.825C-311.683 551.827 -266.782 634.406 -123.332 556.409C20.1183 478.412 -24.7818 395.833 118.627 317.858C262.036 239.884 306.977 322.44 450.428 244.443C593.878 166.446 548.978 83.8668 692.428 5.86963C835.878 -72.1276 880.778 10.4514 1024.27 -67.5682C1167.76 -145.588 1122.82 -228.145 1266.27 -306.142" stroke="url(#paint2_linear_1139_32802)" stroke-opacity="0.24" stroke-width="0.72" stroke-miterlimit="10"/>
<path d="M-95.7461 1290.8C47.7041 1212.81 92.6955 1295.55 236.146 1217.56C379.596 1139.56 334.605 1056.81 478.014 978.837C621.423 900.862 666.455 983.587 809.905 905.589C953.356 827.592 908.364 744.845 1051.82 666.848C1195.27 588.851 1240.26 671.598 1383.75 593.578C1527.24 515.559 1482.21 432.834 1625.66 354.837" stroke="url(#paint3_linear_1139_32802)" stroke-opacity="0.24" stroke-width="0.72" stroke-miterlimit="10"/>
<path d="M-545.02 464.506C-401.57 386.509 -356.579 469.256 -213.129 391.259C-69.6779 313.262 -114.67 230.515 28.7397 152.54C172.148 74.5653 217.181 157.29 360.631 79.2925C504.081 1.29531 459.091 -81.4515 602.541 -159.449C745.991 -237.446 790.982 -154.699 934.473 -232.719C1077.96 -310.738 1032.93 -393.463 1176.38 -471.46" stroke="url(#paint4_linear_1139_32802)" stroke-opacity="0.24" stroke-width="0.72" stroke-miterlimit="10"/>
<path d="M-185.547 1125.63C-42.0965 1047.63 2.8036 1130.21 146.254 1052.21C289.704 974.214 244.804 891.635 388.213 813.66C531.622 735.686 576.563 818.242 720.013 740.245C863.464 662.248 818.564 579.669 962.014 501.671C1105.46 423.674 1150.36 506.253 1293.86 428.234C1437.35 350.214 1392.41 267.657 1535.86 189.66" stroke="url(#paint5_linear_1139_32802)" stroke-opacity="0.24" stroke-width="0.72" stroke-miterlimit="10"/>
<path d="M-365.246 795.154C-221.796 717.156 -176.896 799.735 -33.4456 721.738C110.005 643.741 65.1045 561.162 208.514 483.187C351.923 405.213 396.864 487.769 540.314 409.772C683.764 331.775 638.864 249.196 782.315 171.198C925.765 93.2013 970.665 175.78 1114.16 97.7606C1257.65 19.7409 1212.71 -62.8156 1356.16 -140.813" stroke="url(#paint6_linear_1139_32802)" stroke-opacity="0.24" stroke-width="0.72" stroke-miterlimit="10"/>
<path d="M-5.85547 1456.11C137.595 1378.11 182.495 1460.69 325.945 1382.7C469.395 1304.7 424.495 1222.12 567.904 1144.14C711.313 1066.17 756.255 1148.73 899.705 1070.73C1043.16 992.732 998.255 910.153 1141.71 832.155C1285.16 754.158 1330.06 836.737 1473.55 758.717C1617.04 680.698 1572.1 598.141 1715.55 520.144" stroke="url(#paint7_linear_1139_32802)" stroke-opacity="0.24" stroke-width="0.72" stroke-miterlimit="10"/>
<path d="M-589.922 381.924C-446.472 303.926 -401.572 386.505 -258.121 308.508C-114.671 230.511 -159.571 147.932 -16.1621 69.9573C127.247 -8.01752 172.188 74.5391 315.638 -3.45819C459.089 -81.4554 414.189 -164.034 557.639 -242.032C701.089 -320.029 745.989 -237.45 889.481 -315.47C1032.97 -393.489 988.031 -476.046 1131.48 -554.043" stroke="url(#paint8_linear_1139_32802)" stroke-opacity="0.24" stroke-width="0.72" stroke-miterlimit="10"/>
<path d="M-230.543 1042.89C-87.0927 964.894 -42.1013 1047.64 101.349 969.644C244.799 891.647 199.808 808.9 343.217 730.925C486.626 652.95 531.658 735.675 675.109 657.677C818.559 579.68 773.567 496.933 917.018 418.936C1060.47 340.939 1105.46 423.686 1248.95 345.666C1392.44 267.647 1347.41 184.922 1490.86 106.925" stroke="url(#paint9_linear_1139_32802)" stroke-opacity="0.24" stroke-width="0.72" stroke-miterlimit="10"/>
<path d="M-410.23 712.408C-266.779 634.41 -221.788 717.157 -78.3381 639.16C65.1121 561.163 20.1208 478.416 163.53 400.441C306.939 322.466 351.972 405.191 495.422 327.194C638.872 249.196 593.881 166.45 737.331 88.4523C880.781 10.4551 925.773 93.2019 1069.27 15.1822C1212.76 -62.8374 1167.72 -145.562 1311.17 -223.559" stroke="url(#paint10_linear_1139_32802)" stroke-opacity="0.24" stroke-width="0.72" stroke-miterlimit="10"/>
<path d="M-50.7617 1373.55C92.6886 1295.55 137.589 1378.13 281.039 1300.13C424.489 1222.14 379.589 1139.56 522.998 1061.58C666.407 983.608 711.348 1066.16 854.799 988.168C998.249 910.171 953.349 827.592 1096.8 749.594C1240.25 671.597 1285.15 754.176 1428.64 676.156C1572.13 598.137 1527.19 515.58 1670.64 437.583" stroke="url(#paint11_linear_1139_32802)" stroke-opacity="0.24" stroke-width="0.72" stroke-miterlimit="10"/>
<path d="M-500.031 547.253C-356.581 469.255 -311.681 551.834 -168.231 473.837C-24.7807 395.84 -69.6807 313.261 73.7283 235.286C217.137 157.312 262.079 239.868 405.529 161.871C548.979 83.8737 504.079 1.29478 647.529 -76.7024C790.98 -154.7 835.88 -72.1207 979.371 -150.14C1122.86 -228.16 1077.92 -310.717 1221.37 -388.714" stroke="url(#paint12_linear_1139_32802)" stroke-opacity="0.24" stroke-width="0.72" stroke-miterlimit="10"/>
<path d="M-140.652 1208.21C2.79762 1130.21 47.6977 1212.79 191.148 1134.79C334.599 1056.8 289.698 974.218 433.107 896.243C576.516 818.269 621.458 900.825 764.908 822.828C908.358 744.831 863.458 662.252 1006.91 584.254C1150.36 506.257 1195.26 588.836 1338.75 510.817C1482.24 432.797 1437.3 350.24 1580.75 272.243" stroke="url(#paint13_linear_1139_32802)" stroke-opacity="0.24" stroke-width="0.72" stroke-miterlimit="10"/>
<path d="M106.48 1662.74C249.931 1584.74 294.831 1667.32 438.281 1589.33C581.731 1511.33 536.831 1428.75 680.24 1350.78C823.649 1272.8 868.591 1355.36 1012.04 1277.36C1155.49 1199.36 1110.59 1116.78 1254.04 1038.79C1397.49 960.79 1442.39 1043.37 1585.88 965.349C1729.37 887.329 1684.43 804.773 1827.88 726.775" stroke="url(#paint14_linear_1139_32802)" stroke-opacity="0.24" stroke-width="0.72" stroke-miterlimit="10"/>
<path d="M-320.34 877.726C-176.89 799.728 -131.989 882.307 11.4609 804.31C154.911 726.313 110.011 643.734 253.42 565.759C396.829 487.785 441.77 570.341 585.221 492.344C728.671 414.347 683.771 331.768 827.221 253.77C970.671 175.773 1015.57 258.352 1159.06 180.333C1302.55 102.313 1257.61 19.7565 1401.06 -58.2407" stroke="url(#paint15_linear_1139_32802)" stroke-opacity="0.24" stroke-width="0.72" stroke-miterlimit="10"/>
<path d="M39.0352 1538.7C182.485 1460.71 227.385 1543.29 370.836 1465.29C514.286 1387.29 469.386 1304.71 612.795 1226.74C756.204 1148.76 801.145 1231.32 944.595 1153.32C1088.05 1075.33 1043.15 992.746 1186.6 914.749C1330.05 836.752 1374.95 919.331 1518.44 841.311C1661.93 763.292 1616.99 680.735 1760.44 602.738" stroke="url(#paint16_linear_1139_32802)" stroke-opacity="0.24" stroke-width="0.72" stroke-miterlimit="10"/>
<path d="M-612.379 340.632C-468.929 262.635 -424.029 345.214 -280.578 267.217C-137.128 189.22 -182.028 106.64 -38.6191 28.6657C104.79 -49.309 149.731 33.2475 293.181 -44.7497C436.632 -122.747 391.731 -205.326 535.182 -283.323C678.632 -361.32 723.532 -278.741 867.024 -356.761C1010.52 -434.781 965.574 -517.337 1109.03 -595.334" stroke="url(#paint17_linear_1139_32802)" stroke-opacity="0.24" stroke-width="0.72" stroke-miterlimit="10"/>
<path d="M-252.992 1001.6C-109.542 923.603 -64.5508 1006.35 78.8994 928.353C222.35 850.355 177.359 767.608 320.768 689.634C464.176 611.659 509.209 694.383 652.659 616.386C796.11 538.389 751.118 455.642 894.568 377.645C1038.02 299.648 1083.01 382.394 1226.5 304.375C1370 226.355 1324.96 143.631 1468.41 65.6338" stroke="url(#paint18_linear_1139_32802)" stroke-opacity="0.24" stroke-width="0.72" stroke-miterlimit="10"/>
<path d="M-432.688 671.116C-289.236 593.119 -244.337 675.698 -100.887 597.701C42.5638 519.703 -2.33627 437.124 141.073 359.15C284.482 281.175 329.424 363.731 472.874 285.734C616.324 207.737 571.424 125.158 714.874 47.161C858.324 -30.8362 903.225 51.7427 1046.72 -26.2769C1190.21 -104.297 1145.27 -186.853 1288.72 -264.85" stroke="url(#paint19_linear_1139_32802)" stroke-opacity="0.24" stroke-width="0.72" stroke-miterlimit="10"/>
<path d="M-73.3008 1332.09C70.1494 1254.1 115.141 1336.84 258.591 1258.85C402.041 1180.85 357.05 1098.1 500.459 1020.13C643.868 942.154 688.901 1024.88 832.351 946.881C975.801 868.884 930.81 786.137 1074.26 708.14C1217.71 630.142 1262.7 712.889 1406.2 634.87C1549.69 556.85 1504.65 474.126 1648.1 396.128" stroke="url(#paint20_linear_1139_32802)" stroke-opacity="0.24" stroke-width="0.72" stroke-miterlimit="10"/>
<path d="M-522.48 505.961C-379.029 427.964 -334.129 510.543 -190.679 432.546C-47.2291 354.549 -92.1292 271.97 51.2797 193.995C194.689 116.02 239.631 198.577 383.081 120.579C526.531 42.5822 481.631 -39.9967 625.081 -117.994C768.531 -195.991 813.432 -113.412 956.923 -191.432C1100.42 -269.452 1055.47 -352.008 1198.92 -430.005" stroke="url(#paint21_linear_1139_32802)" stroke-opacity="0.24" stroke-width="0.72" stroke-miterlimit="10"/>
<path d="M-163.102 1166.94C-19.6509 1088.94 25.2493 1171.52 168.699 1093.52C312.149 1015.53 267.249 932.948 410.658 854.974C554.067 776.999 599.009 859.555 742.459 781.558C885.909 703.561 841.009 620.982 984.459 542.985C1127.91 464.988 1172.81 547.566 1316.3 469.547C1459.79 391.527 1414.85 308.971 1558.3 230.973" stroke="url(#paint22_linear_1139_32802)" stroke-opacity="0.24" stroke-width="0.72" stroke-miterlimit="10"/>
<path d="M83.9414 1621.29C227.392 1543.29 272.383 1626.04 415.833 1548.04C559.284 1470.04 514.292 1387.3 657.701 1309.32C801.11 1231.35 846.143 1314.07 989.593 1236.07C1133.04 1158.08 1088.05 1075.33 1231.5 997.332C1374.95 919.335 1419.94 1002.08 1563.44 924.062C1706.93 846.042 1661.89 763.318 1805.34 685.321" stroke="url(#paint23_linear_1139_32802)" stroke-opacity="0.24" stroke-width="0.72" stroke-miterlimit="10"/>
<path d="M-342.789 836.445C-199.339 758.448 -154.439 841.027 -10.9886 763.03C132.462 685.033 87.5616 602.454 230.971 524.479C374.38 446.504 419.321 529.061 562.771 451.063C706.222 373.066 661.321 290.487 804.772 212.49C948.222 134.493 993.122 217.072 1136.62 139.052C1280.11 61.0325 1235.17 -21.524 1378.62 -99.5212" stroke="url(#paint24_linear_1139_32802)" stroke-opacity="0.24" stroke-width="0.72" stroke-miterlimit="10"/>
<path d="M16.5898 1497.41C160.04 1419.42 204.94 1501.99 348.39 1424C491.841 1346 446.941 1263.42 590.35 1185.45C733.759 1107.47 778.7 1190.03 922.15 1112.03C1065.6 1034.03 1020.7 951.455 1164.15 873.458C1307.6 795.46 1352.5 878.039 1495.99 800.02C1639.48 722 1594.54 639.444 1737.99 561.446" stroke="url(#paint25_linear_1139_32802)" stroke-opacity="0.24" stroke-width="0.72" stroke-miterlimit="10"/>
<path d="M-567.477 423.215C-424.026 345.218 -379.035 427.965 -235.585 349.968C-92.1341 271.97 -137.126 189.223 6.28357 111.249C149.692 33.2739 194.725 115.998 338.175 38.0011C481.625 -39.9961 436.634 -122.743 580.084 -200.74C723.534 -278.737 768.526 -195.991 912.017 -274.01C1055.51 -352.03 1010.48 -434.754 1153.93 -512.751" stroke="url(#paint26_linear_1139_32802)" stroke-opacity="0.24" stroke-width="0.72" stroke-miterlimit="10"/>
<path d="M-207.996 1084.35C-64.546 1006.35 -19.6459 1088.93 123.804 1010.93C267.255 932.934 222.355 850.355 365.764 772.38C509.173 694.405 554.114 776.962 697.564 698.964C841.014 620.967 796.114 538.388 939.565 460.391C1083.02 382.394 1127.92 464.973 1271.41 386.953C1414.9 308.933 1369.96 226.377 1513.41 148.38" stroke="url(#paint27_linear_1139_32802)" stroke-opacity="0.24" stroke-width="0.72" stroke-miterlimit="10"/>
<path d="M-387.785 753.699C-244.335 675.702 -199.344 758.449 -55.8935 680.451C87.5567 602.454 42.5655 519.707 185.975 441.733C329.384 363.758 374.416 446.482 517.866 368.485C661.317 290.488 616.325 207.741 759.775 129.744C903.226 51.7465 948.217 134.493 1091.71 56.4736C1235.2 -21.546 1190.17 -104.27 1333.62 -182.268" stroke="url(#paint28_linear_1139_32802)" stroke-opacity="0.24" stroke-width="0.72" stroke-miterlimit="10"/>
<path d="M-28.3086 1414.84C115.142 1336.84 160.042 1419.42 303.492 1341.43C446.942 1263.43 402.042 1180.85 545.451 1102.87C688.86 1024.9 733.802 1107.46 877.252 1029.46C1020.7 951.462 975.802 868.883 1119.25 790.886C1262.7 712.888 1307.6 795.467 1451.09 717.448C1594.59 639.428 1549.64 556.871 1693.09 478.874" stroke="url(#paint29_linear_1139_32802)" stroke-opacity="0.24" stroke-width="0.72" stroke-miterlimit="10"/>
<path d="M-477.586 588.533C-334.136 510.536 -289.236 593.115 -145.785 515.118C-2.33504 437.121 -47.2351 354.542 96.1739 276.567C239.583 198.592 284.524 281.149 427.974 203.151C571.425 125.154 526.524 42.5754 669.975 -35.4218C813.425 -113.419 858.325 -30.8401 1001.82 -108.86C1145.31 -186.88 1100.37 -269.436 1243.82 -347.433" stroke="url(#paint30_linear_1139_32802)" stroke-opacity="0.24" stroke-width="0.72" stroke-miterlimit="10"/>
<path d="M-118.195 1249.5C25.2547 1171.5 70.1548 1254.08 213.605 1176.09C357.056 1098.09 312.156 1015.51 455.564 937.535C598.973 859.56 643.915 942.116 787.365 864.119C930.815 786.122 885.915 703.543 1029.36 625.546C1172.81 547.549 1217.71 630.128 1361.21 552.108C1504.7 474.088 1459.76 391.532 1603.21 313.535" stroke="url(#paint31_linear_1139_32802)" stroke-opacity="0.24" stroke-width="0.72" stroke-miterlimit="10"/>
<path d="M128.938 1704.03C272.387 1626.04 317.287 1708.62 460.737 1630.62C604.187 1552.62 559.288 1470.04 702.697 1392.07C846.106 1314.09 891.048 1396.65 1034.5 1318.65C1177.95 1240.65 1133.05 1158.08 1276.5 1080.08C1419.95 1002.08 1464.85 1084.66 1608.34 1006.64C1751.83 928.621 1706.89 846.064 1850.34 768.067" stroke="url(#paint32_linear_1139_32802)" stroke-opacity="0.24" stroke-width="0.72" stroke-miterlimit="10"/>
<path d="M-297.895 919.017C-154.444 841.02 -109.544 923.599 33.9066 845.602C177.356 767.605 132.456 685.026 275.865 607.051C419.274 529.076 464.217 611.633 607.667 533.635C751.117 455.638 706.217 373.059 849.667 295.062C993.117 217.065 1038.02 299.644 1181.51 221.624C1325 143.604 1280.06 61.048 1423.51 -16.9492" stroke="url(#paint33_linear_1139_32802)" stroke-opacity="0.24" stroke-width="0.72" stroke-miterlimit="10"/>
<path d="M61.4922 1580C204.942 1502 249.934 1584.75 393.384 1506.75C536.834 1428.75 491.843 1346 635.252 1268.03C778.661 1190.05 823.694 1272.78 967.144 1194.78C1110.6 1116.78 1065.6 1034.04 1209.05 956.041C1352.51 878.043 1397.5 960.79 1540.99 882.771C1684.48 804.751 1639.45 722.027 1782.9 644.029" stroke="url(#paint34_linear_1139_32802)" stroke-opacity="0.24" stroke-width="0.72" stroke-miterlimit="10"/>
</g>
</g>
<defs>
<linearGradient id="paint0_linear_1139_32802" x1="225.877" y1="-168.653" x2="270.777" y2="-86.0743" gradientUnits="userSpaceOnUse">
<stop stop-color="white"/>
<stop offset="1" stop-color="white" stop-opacity="0.24"/>
</linearGradient>
<linearGradient id="paint1_linear_1139_32802" x1="585.264" y1="492.325" x2="630.164" y2="574.904" gradientUnits="userSpaceOnUse">
<stop stop-color="white"/>
<stop offset="1" stop-color="white" stop-opacity="0.24"/>
</linearGradient>
<linearGradient id="paint2_linear_1139_32802" x1="405.569" y1="161.841" x2="450.469" y2="244.42" gradientUnits="userSpaceOnUse">
<stop stop-color="white"/>
<stop offset="1" stop-color="white" stop-opacity="0.24"/>
</linearGradient>
<linearGradient id="paint3_linear_1139_32802" x1="764.955" y1="822.82" x2="809.947" y2="905.567" gradientUnits="userSpaceOnUse">
<stop stop-color="white"/>
<stop offset="1" stop-color="white" stop-opacity="0.24"/>
</linearGradient>
<linearGradient id="paint4_linear_1139_32802" x1="315.681" y1="-3.4767" x2="360.672" y2="79.2701" gradientUnits="userSpaceOnUse">
<stop stop-color="white"/>
<stop offset="1" stop-color="white" stop-opacity="0.24"/>
</linearGradient>
<linearGradient id="paint5_linear_1139_32802" x1="675.155" y1="657.643" x2="720.055" y2="740.222" gradientUnits="userSpaceOnUse">
<stop stop-color="white"/>
<stop offset="1" stop-color="white" stop-opacity="0.24"/>
</linearGradient>
<linearGradient id="paint6_linear_1139_32802" x1="495.455" y1="327.17" x2="540.355" y2="409.749" gradientUnits="userSpaceOnUse">
<stop stop-color="white"/>
<stop offset="1" stop-color="white" stop-opacity="0.24"/>
</linearGradient>
<linearGradient id="paint7_linear_1139_32802" x1="854.846" y1="988.127" x2="899.746" y2="1070.71" gradientUnits="userSpaceOnUse">
<stop stop-color="white"/>
<stop offset="1" stop-color="white" stop-opacity="0.24"/>
</linearGradient>
<linearGradient id="paint8_linear_1139_32802" x1="270.78" y1="-86.0596" x2="315.68" y2="-3.48061" gradientUnits="userSpaceOnUse">
<stop stop-color="white"/>
<stop offset="1" stop-color="white" stop-opacity="0.24"/>
</linearGradient>
<linearGradient id="paint9_linear_1139_32802" x1="630.159" y1="574.908" x2="675.15" y2="657.655" gradientUnits="userSpaceOnUse">
<stop stop-color="white"/>
<stop offset="1" stop-color="white" stop-opacity="0.24"/>
</linearGradient>
<linearGradient id="paint10_linear_1139_32802" x1="450.472" y1="244.424" x2="495.463" y2="327.171" gradientUnits="userSpaceOnUse">
<stop stop-color="white"/>
<stop offset="1" stop-color="white" stop-opacity="0.24"/>
</linearGradient>
<linearGradient id="paint11_linear_1139_32802" x1="809.94" y1="905.566" x2="854.84" y2="988.145" gradientUnits="userSpaceOnUse">
<stop stop-color="white"/>
<stop offset="1" stop-color="white" stop-opacity="0.24"/>
</linearGradient>
<linearGradient id="paint12_linear_1139_32802" x1="360.67" y1="79.2695" x2="405.57" y2="161.848" gradientUnits="userSpaceOnUse">
<stop stop-color="white"/>
<stop offset="1" stop-color="white" stop-opacity="0.24"/>
</linearGradient>
<linearGradient id="paint13_linear_1139_32802" x1="720.049" y1="740.226" x2="764.949" y2="822.805" gradientUnits="userSpaceOnUse">
<stop stop-color="white"/>
<stop offset="1" stop-color="white" stop-opacity="0.24"/>
</linearGradient>
<linearGradient id="paint14_linear_1139_32802" x1="967.182" y1="1194.76" x2="1012.08" y2="1277.34" gradientUnits="userSpaceOnUse">
<stop stop-color="white"/>
<stop offset="1" stop-color="white" stop-opacity="0.24"/>
</linearGradient>
<linearGradient id="paint15_linear_1139_32802" x1="540.362" y1="409.742" x2="585.262" y2="492.321" gradientUnits="userSpaceOnUse">
<stop stop-color="white"/>
<stop offset="1" stop-color="white" stop-opacity="0.24"/>
</linearGradient>
<linearGradient id="paint16_linear_1139_32802" x1="899.737" y1="1070.72" x2="944.637" y2="1153.3" gradientUnits="userSpaceOnUse">
<stop stop-color="white"/>
<stop offset="1" stop-color="white" stop-opacity="0.24"/>
</linearGradient>
<linearGradient id="paint17_linear_1139_32802" x1="248.323" y1="-127.351" x2="293.223" y2="-44.7722" gradientUnits="userSpaceOnUse">
<stop stop-color="white"/>
<stop offset="1" stop-color="white" stop-opacity="0.24"/>
</linearGradient>
<linearGradient id="paint18_linear_1139_32802" x1="607.709" y1="533.617" x2="652.701" y2="616.364" gradientUnits="userSpaceOnUse">
<stop stop-color="white"/>
<stop offset="1" stop-color="white" stop-opacity="0.24"/>
</linearGradient>
<linearGradient id="paint19_linear_1139_32802" x1="428.014" y1="203.133" x2="472.914" y2="285.712" gradientUnits="userSpaceOnUse">
<stop stop-color="white"/>
<stop offset="1" stop-color="white" stop-opacity="0.24"/>
</linearGradient>
<linearGradient id="paint20_linear_1139_32802" x1="787.401" y1="864.112" x2="832.392" y2="946.858" gradientUnits="userSpaceOnUse">
<stop stop-color="white"/>
<stop offset="1" stop-color="white" stop-opacity="0.24"/>
</linearGradient>
<linearGradient id="paint21_linear_1139_32802" x1="338.222" y1="37.978" x2="383.122" y2="120.557" gradientUnits="userSpaceOnUse">
<stop stop-color="white"/>
<stop offset="1" stop-color="white" stop-opacity="0.24"/>
</linearGradient>
<linearGradient id="paint22_linear_1139_32802" x1="697.601" y1="698.957" x2="742.501" y2="781.536" gradientUnits="userSpaceOnUse">
<stop stop-color="white"/>
<stop offset="1" stop-color="white" stop-opacity="0.24"/>
</linearGradient>
<linearGradient id="paint23_linear_1139_32802" x1="944.643" y1="1153.3" x2="989.634" y2="1236.05" gradientUnits="userSpaceOnUse">
<stop stop-color="white"/>
<stop offset="1" stop-color="white" stop-opacity="0.24"/>
</linearGradient>
<linearGradient id="paint24_linear_1139_32802" x1="517.912" y1="368.462" x2="562.813" y2="451.041" gradientUnits="userSpaceOnUse">
<stop stop-color="white"/>
<stop offset="1" stop-color="white" stop-opacity="0.24"/>
</linearGradient>
<linearGradient id="paint25_linear_1139_32802" x1="877.291" y1="1029.43" x2="922.191" y2="1112.01" gradientUnits="userSpaceOnUse">
<stop stop-color="white"/>
<stop offset="1" stop-color="white" stop-opacity="0.24"/>
</linearGradient>
<linearGradient id="paint26_linear_1139_32802" x1="293.225" y1="-44.7682" x2="338.216" y2="37.9787" gradientUnits="userSpaceOnUse">
<stop stop-color="white"/>
<stop offset="1" stop-color="white" stop-opacity="0.24"/>
</linearGradient>
<linearGradient id="paint27_linear_1139_32802" x1="652.705" y1="616.363" x2="697.605" y2="698.942" gradientUnits="userSpaceOnUse">
<stop stop-color="white"/>
<stop offset="1" stop-color="white" stop-opacity="0.24"/>
</linearGradient>
<linearGradient id="paint28_linear_1139_32802" x1="472.916" y1="285.716" x2="517.908" y2="368.463" gradientUnits="userSpaceOnUse">
<stop stop-color="white"/>
<stop offset="1" stop-color="white" stop-opacity="0.24"/>
</linearGradient>
<linearGradient id="paint29_linear_1139_32802" x1="832.393" y1="946.858" x2="877.293" y2="1029.44" gradientUnits="userSpaceOnUse">
<stop stop-color="white"/>
<stop offset="1" stop-color="white" stop-opacity="0.24"/>
</linearGradient>
<linearGradient id="paint30_linear_1139_32802" x1="383.116" y1="120.55" x2="428.016" y2="203.129" gradientUnits="userSpaceOnUse">
<stop stop-color="white"/>
<stop offset="1" stop-color="white" stop-opacity="0.24"/>
</linearGradient>
<linearGradient id="paint31_linear_1139_32802" x1="742.506" y1="781.518" x2="787.406" y2="864.097" gradientUnits="userSpaceOnUse">
<stop stop-color="white"/>
<stop offset="1" stop-color="white" stop-opacity="0.24"/>
</linearGradient>
<linearGradient id="paint32_linear_1139_32802" x1="989.638" y1="1236.05" x2="1034.54" y2="1318.63" gradientUnits="userSpaceOnUse">
<stop stop-color="white"/>
<stop offset="1" stop-color="white" stop-opacity="0.24"/>
</linearGradient>
<linearGradient id="paint33_linear_1139_32802" x1="562.807" y1="451.034" x2="607.707" y2="533.613" gradientUnits="userSpaceOnUse">
<stop stop-color="white"/>
<stop offset="1" stop-color="white" stop-opacity="0.24"/>
</linearGradient>
<linearGradient id="paint34_linear_1139_32802" x1="922.194" y1="1112.01" x2="967.185" y2="1194.76" gradientUnits="userSpaceOnUse">
<stop stop-color="white"/>
<stop offset="1" stop-color="white" stop-opacity="0.24"/>
</linearGradient>
<clipPath id="clip0_1139_32802">
<rect width="1440" height="800" fill="white"/>
</clipPath>
</defs>
</svg>
