<svg width="312" height="53" viewBox="0 0 312 53" fill="none" xmlns="http://www.w3.org/2000/svg">
<path d="M82.6254 35.1497C82.3827 35.3519 81.9277 35.6249 81.2604 35.9687C80.6133 36.3125 79.8145 36.6158 78.8641 36.8787C77.9137 37.1416 76.8621 37.2629 75.7095 37.2427C73.9502 37.2022 72.3729 36.8888 70.9776 36.3023C69.6025 35.6957 68.4296 34.8767 67.4589 33.8454C66.5085 32.8141 65.7805 31.6311 65.275 30.2964C64.7694 28.9618 64.5166 27.5361 64.5166 26.0195C64.5166 24.3208 64.7694 22.7638 65.275 21.3482C65.8007 19.9327 66.5388 18.7093 67.4893 17.6779C68.4599 16.6466 69.6126 15.8479 70.9472 15.2816C72.2819 14.7154 73.7581 14.4323 75.3758 14.4323C76.8722 14.4323 78.1968 14.6345 79.3494 15.039C80.5021 15.4434 81.4424 15.8782 82.1704 16.3433L80.4414 20.4989C79.9359 20.1147 79.2584 19.7204 78.4091 19.3159C77.58 18.8913 76.6195 18.6789 75.5275 18.6789C74.6782 18.6789 73.8592 18.8609 73.0705 19.2249C72.3021 19.5687 71.6145 20.0641 71.0079 20.7112C70.4214 21.3583 69.9563 22.1167 69.6126 22.9862C69.2688 23.8355 69.0969 24.7657 69.0969 25.7768C69.0969 26.8486 69.2486 27.8294 69.5519 28.7191C69.8755 29.6089 70.3305 30.3773 70.9169 31.0244C71.5033 31.6513 72.201 32.1366 73.0099 32.4804C73.839 32.8242 74.7692 32.9961 75.8005 32.9961C76.9936 32.9961 78.0148 32.8039 78.8641 32.4197C79.7134 32.0355 80.3605 31.6311 80.8054 31.2064L82.6254 35.1497ZM98.9525 20.0742C98.1032 19.6091 97.2337 19.2249 96.3439 18.9216C95.4744 18.6183 94.6554 18.4666 93.8869 18.4666C92.9365 18.4666 92.1883 18.6587 91.6423 19.0429C91.0963 19.4271 90.8233 20.0035 90.8233 20.7719C90.8233 21.2977 91.0255 21.7729 91.43 22.1975C91.8546 22.602 92.3905 22.966 93.0376 23.2895C93.705 23.6131 94.3925 23.9063 95.1003 24.1692C95.7474 24.4118 96.3844 24.7051 97.0112 25.0488C97.6583 25.3724 98.2347 25.7869 98.7402 26.2925C99.2458 26.7778 99.6502 27.3946 99.9535 28.1428C100.257 28.8708 100.409 29.7707 100.409 30.8424C100.409 31.9748 100.115 33.0264 99.5289 33.997C98.9424 34.9677 98.083 35.7564 96.9506 36.363C95.8181 36.9494 94.4228 37.2427 92.7646 37.2427C91.9153 37.2427 91.0458 37.1618 90.156 37C89.2865 36.818 88.427 36.5551 87.5777 36.2113C86.7284 35.8473 85.9094 35.3924 85.1207 34.8464L87.062 31.4187C87.5878 31.803 88.154 32.1467 88.7607 32.4501C89.3876 32.7332 90.0144 32.9556 90.6413 33.1174C91.2682 33.2792 91.8445 33.3601 92.3703 33.3601C92.8961 33.3601 93.4218 33.2893 93.9476 33.1477C94.4936 32.9859 94.9385 32.7231 95.2823 32.3591C95.6463 31.9951 95.8283 31.4895 95.8283 30.8424C95.8283 30.3975 95.6766 29.9931 95.3733 29.6291C95.0902 29.2651 94.6958 28.9314 94.1903 28.6281C93.705 28.3248 93.1691 28.0619 92.5826 27.8395C91.8951 27.5766 91.1873 27.2732 90.4593 26.9295C89.7313 26.5857 89.0438 26.1712 88.3967 25.6858C87.7698 25.1803 87.2542 24.5635 86.8497 23.8355C86.4655 23.0873 86.2734 22.1773 86.2734 21.1056C86.2734 19.8114 86.5565 18.689 87.1227 17.7386C87.7091 16.7882 88.5281 16.04 89.5797 15.494C90.6312 14.9278 91.8445 14.6143 93.2196 14.5537C95.0194 14.5537 96.4754 14.766 97.5876 15.1906C98.72 15.6153 99.7311 16.1209 100.621 16.7073L98.9525 20.0742ZM114.58 37V13.765H114.61L127.017 31.3581L125.136 30.9334L137.512 13.765H137.572V37H133.174V23.6839L133.447 25.9588L125.894 36.6967H125.834L118.068 25.9588L118.827 23.8659V37H114.58ZM141.978 25.8678C141.978 24.331 142.271 22.875 142.858 21.4999C143.444 20.1248 144.253 18.9115 145.284 17.8599C146.336 16.7882 147.549 15.949 148.924 15.3423C150.299 14.7357 151.776 14.4323 153.353 14.4323C154.91 14.4323 156.376 14.7357 157.751 15.3423C159.126 15.949 160.34 16.7882 161.391 17.8599C162.463 18.9115 163.292 20.1248 163.878 21.4999C164.485 22.875 164.788 24.331 164.788 25.8678C164.788 27.4451 164.485 28.9213 163.878 30.2964C163.292 31.6715 162.463 32.8848 161.391 33.9364C160.34 34.9677 159.126 35.7766 157.751 36.363C156.376 36.9494 154.91 37.2427 153.353 37.2427C151.776 37.2427 150.299 36.9494 148.924 36.363C147.549 35.7766 146.336 34.9677 145.284 33.9364C144.253 32.8848 143.444 31.6715 142.858 30.2964C142.271 28.9213 141.978 27.4451 141.978 25.8678ZM146.528 25.8678C146.528 26.8587 146.7 27.7889 147.044 28.6585C147.408 29.5078 147.903 30.2661 148.53 30.9334C149.177 31.5805 149.915 32.0861 150.744 32.4501C151.594 32.8141 152.514 32.9961 153.505 32.9961C154.455 32.9961 155.335 32.8141 156.144 32.4501C156.973 32.0861 157.691 31.5805 158.297 30.9334C158.904 30.2661 159.379 29.5078 159.723 28.6585C160.067 27.7889 160.239 26.8587 160.239 25.8678C160.239 24.8567 160.057 23.9164 159.693 23.0469C159.349 22.1773 158.863 21.419 158.237 20.7719C157.63 20.1046 156.912 19.5889 156.083 19.2249C155.254 18.8609 154.354 18.6789 153.383 18.6789C152.413 18.6789 151.513 18.8609 150.684 19.2249C149.855 19.5889 149.127 20.1046 148.5 20.7719C147.873 21.419 147.387 22.1773 147.044 23.0469C146.7 23.9164 146.528 24.8567 146.528 25.8678ZM189.163 37.91L172.237 22.6222L173.541 23.3502L173.632 37H169.173V13.7953H169.355L185.917 29.0224L184.947 28.5978L184.856 14.675H189.284V37.91H189.163ZM193.668 25.8678C193.668 24.331 193.962 22.875 194.548 21.4999C195.135 20.1248 195.943 18.9115 196.975 17.8599C198.026 16.7882 199.24 15.949 200.615 15.3423C201.99 14.7357 203.466 14.4323 205.043 14.4323C206.6 14.4323 208.066 14.7357 209.442 15.3423C210.817 15.949 212.03 16.7882 213.081 17.8599C214.153 18.9115 214.982 20.1248 215.569 21.4999C216.175 22.875 216.479 24.331 216.479 25.8678C216.479 27.4451 216.175 28.9213 215.569 30.2964C214.982 31.6715 214.153 32.8848 213.081 33.9364C212.03 34.9677 210.817 35.7766 209.442 36.363C208.066 36.9494 206.6 37.2427 205.043 37.2427C203.466 37.2427 201.99 36.9494 200.615 36.363C199.24 35.7766 198.026 34.9677 196.975 33.9364C195.943 32.8848 195.135 31.6715 194.548 30.2964C193.962 28.9213 193.668 27.4451 193.668 25.8678ZM198.218 25.8678C198.218 26.8587 198.39 27.7889 198.734 28.6585C199.098 29.5078 199.593 30.2661 200.22 30.9334C200.867 31.5805 201.606 32.0861 202.435 32.4501C203.284 32.8141 204.204 32.9961 205.195 32.9961C206.145 32.9961 207.025 32.8141 207.834 32.4501C208.663 32.0861 209.381 31.5805 209.988 30.9334C210.594 30.2661 211.069 29.5078 211.413 28.6585C211.757 27.7889 211.929 26.8587 211.929 25.8678C211.929 24.8567 211.747 23.9164 211.383 23.0469C211.039 22.1773 210.554 21.419 209.927 20.7719C209.32 20.1046 208.602 19.5889 207.773 19.2249C206.944 18.8609 206.044 18.6789 205.074 18.6789C204.103 18.6789 203.203 18.8609 202.374 19.2249C201.545 19.5889 200.817 20.1046 200.19 20.7719C199.563 21.419 199.078 22.1773 198.734 23.0469C198.39 23.9164 198.218 24.8567 198.218 25.8678ZM238.973 34.7554C238.71 35.0385 238.295 35.3317 237.729 35.635C237.163 35.9181 236.505 36.181 235.757 36.4237C235.029 36.6663 234.281 36.8584 233.513 37C232.744 37.1618 232.016 37.2427 231.329 37.2427C229.509 37.2427 227.871 36.9798 226.415 36.454C224.959 35.908 223.715 35.1598 222.684 34.2094C221.652 33.2387 220.864 32.0962 220.318 30.7818C219.772 29.4673 219.499 28.0316 219.499 26.4745C219.499 24.4321 219.802 22.6626 220.409 21.1662C221.036 19.6496 221.875 18.3958 222.926 17.4049C223.998 16.3938 225.222 15.6456 226.597 15.1603C227.992 14.675 229.448 14.4323 230.965 14.4323C232.4 14.4323 233.715 14.5941 234.908 14.9176C236.101 15.221 237.112 15.6052 237.941 16.0703L236.516 20.1652C236.152 19.963 235.666 19.7608 235.06 19.5586C234.453 19.3564 233.836 19.1946 233.209 19.0733C232.582 18.9317 232.026 18.8609 231.541 18.8609C230.328 18.8609 229.256 19.0126 228.326 19.3159C227.395 19.6192 226.607 20.0742 225.96 20.6809C225.333 21.2876 224.858 22.0459 224.534 22.9559C224.211 23.8456 224.049 24.8871 224.049 26.0802C224.049 27.1317 224.231 28.0821 224.595 28.9314C224.959 29.7605 225.464 30.4683 226.111 31.0548C226.779 31.6412 227.557 32.0861 228.447 32.3894C229.357 32.6927 230.358 32.8444 231.45 32.8444C232.077 32.8444 232.653 32.8039 233.179 32.7231C233.705 32.622 234.15 32.4703 234.514 32.2681V29.5684H230.661V25.3218H238.973V34.7554ZM250.733 14.675C252.128 14.675 253.372 14.857 254.464 15.221C255.556 15.5648 256.466 16.0703 257.194 16.7376C257.942 17.3847 258.508 18.1734 258.893 19.1036C259.277 20.0136 259.469 21.0449 259.469 22.1975C259.469 23.1075 259.327 24.0175 259.044 24.9275C258.781 25.8375 258.337 26.6666 257.71 27.4148C257.103 28.163 256.294 28.7697 255.283 29.2348C254.272 29.6797 253.018 29.9021 251.522 29.9021H248.367V37H243.969V14.675H250.733ZM251.491 25.6555C252.159 25.6555 252.715 25.5443 253.16 25.3218C253.605 25.0994 253.948 24.8163 254.191 24.4725C254.454 24.1287 254.636 23.7749 254.737 23.4109C254.858 23.0266 254.919 22.6728 254.919 22.3492C254.919 22.1065 254.879 21.8032 254.798 21.4392C254.737 21.055 254.596 20.6708 254.373 20.2866C254.151 19.9024 253.807 19.5788 253.342 19.3159C252.897 19.053 252.29 18.9216 251.522 18.9216H248.367V25.6555H251.491ZM255.617 28.3855L261.137 37H256.011L250.369 28.5068L255.617 28.3855ZM262.246 37L272.316 13.7953H272.559L282.63 37H277.534L271.103 20.6809L274.288 18.4969L266.584 37H262.246ZM269.131 28.9314H275.835L277.382 32.6321H267.766L269.131 28.9314ZM285.884 37V13.765H285.914L298.32 31.3581L296.44 30.9334L308.816 13.765H308.876V37H304.478V23.6839L304.751 25.9588L297.198 36.6967H297.138L289.372 25.9588L290.131 23.8659V37H285.884Z" fill="white"/>
<path d="M40.0489 43.0229C36.138 46.2502 31.1868 48.0275 26.1069 48.0275C14.0205 48.0275 4.18746 38.1945 4.18746 26.1077C4.18746 14.0213 14.0205 4.18831 26.1069 4.18831C31.1868 4.18831 36.138 5.96564 40.0489 9.19249C40.9415 9.92824 42.2618 9.80202 42.9971 8.91034C43.7333 8.01823 43.607 6.69837 42.7149 5.96219C38.0558 2.11763 32.1578 0 26.1073 0C11.7116 0 0 11.7116 0 26.1073C0 40.503 11.7116 52.215 26.1073 52.215C32.1574 52.215 38.0558 50.0978 42.7149 46.2524C43.607 45.5162 43.7333 44.1963 42.9971 43.3042C42.2613 42.4134 40.9411 42.2863 40.0489 43.0229Z" fill="#FF4C00"/>
<path d="M10.3581 15.0569C10.3637 15.1194 10.3797 15.1792 10.3909 15.2408C10.4038 15.3119 10.4124 15.3834 10.4327 15.4532C10.4495 15.5114 10.4762 15.5661 10.4977 15.6225C10.5244 15.6914 10.5468 15.7616 10.5813 15.828C10.6132 15.8896 10.6549 15.9456 10.6928 16.0046C10.7286 16.0597 10.7588 16.117 10.8001 16.1691C10.86 16.2449 10.9311 16.3117 11.0017 16.3793C11.0306 16.4069 11.053 16.4388 11.084 16.4651C11.0857 16.4664 11.0874 16.4672 11.0892 16.4685C11.1426 16.5137 11.2059 16.5499 11.2649 16.59C11.3239 16.6305 11.3799 16.6761 11.4419 16.7097C11.4441 16.711 11.4454 16.7123 11.4471 16.7132L37.5656 30.8272C37.8822 30.9986 38.223 31.0796 38.5589 31.0796C39.3037 31.0796 40.0244 30.6816 40.403 29.9807C40.9531 28.9632 40.5741 27.6925 39.5562 27.1428L15.9352 14.3785C18.3828 12.3599 21.3883 11.1783 24.6354 11.0228C29.3591 10.8031 33.9571 12.8647 36.9294 16.556C37.3433 17.0699 37.9498 17.3369 38.5615 17.3369C39.0224 17.3369 39.4868 17.1857 39.8736 16.8739C40.7748 16.1485 40.9165 14.8299 40.1915 13.9296C36.3827 9.20024 30.492 6.55708 24.4351 6.83966C19.2 7.09079 14.2479 9.52288 10.8479 13.5126C10.8458 13.5152 10.8445 13.5182 10.8419 13.5212C10.8165 13.5514 10.7975 13.588 10.7734 13.6199C10.7109 13.703 10.6489 13.7857 10.6007 13.8745L10.5998 13.8757C10.5951 13.8848 10.5929 13.8947 10.5882 13.9037C10.5283 14.0188 10.4775 14.1368 10.4404 14.2583C10.4262 14.3044 10.4219 14.3513 10.4107 14.3978C10.3909 14.4831 10.3689 14.568 10.3603 14.6546C10.3538 14.717 10.3581 14.7791 10.3573 14.8419C10.3569 14.9135 10.3517 14.9854 10.3581 15.0569Z" fill="#FF4C00"/>
<path d="M41.8564 37.1593C41.8508 37.0964 41.8349 37.0361 41.8237 36.974C41.8108 36.9034 41.8022 36.8323 41.7823 36.7634C41.7651 36.704 41.738 36.6484 41.7156 36.5907C41.6893 36.523 41.6673 36.4541 41.6337 36.3891C41.601 36.3253 41.5579 36.2672 41.5183 36.2069C41.4838 36.1539 41.4545 36.0987 41.4149 36.0483C41.3546 35.9717 41.2826 35.9036 41.2107 35.8355C41.1827 35.8088 41.1607 35.7774 41.1306 35.752C41.1289 35.7507 41.1271 35.7498 41.1254 35.7485C41.0729 35.7042 41.0108 35.6693 40.9535 35.6296C40.8932 35.5883 40.8355 35.5413 40.7722 35.5069C40.7705 35.506 40.7687 35.5043 40.767 35.5034L11.799 19.8499C10.7811 19.2981 9.51126 19.6785 8.96117 20.6963C8.41109 21.7138 8.79016 22.9841 9.80762 23.5342L36.278 37.8382C33.8304 39.8567 30.8246 41.0383 27.5779 41.1942C22.8473 41.4118 18.2558 39.3519 15.2839 35.6611C14.5585 34.7603 13.2395 34.6178 12.3396 35.3432C11.4385 36.0686 11.2968 37.3871 12.0217 38.2874C15.6406 42.782 21.1397 45.3989 26.8766 45.3989C27.1764 45.3989 27.4775 45.3916 27.7786 45.3774C33.0133 45.1262 37.9653 42.6942 41.3658 38.7044C41.4627 38.5907 41.5441 38.4688 41.613 38.3421L41.6139 38.3413C41.6186 38.3322 41.6208 38.3228 41.6255 38.3137C41.6854 38.1987 41.7362 38.0807 41.7733 37.9588C41.7875 37.9131 41.7918 37.8666 41.8026 37.8205C41.8224 37.7348 41.8444 37.6495 41.8534 37.5625C41.8599 37.5 41.8556 37.438 41.8564 37.3755C41.8577 37.3027 41.8629 37.2312 41.8564 37.1593Z" fill="#FF4C00"/>
</svg>
