<svg width="1137" height="796" viewBox="0 0 1137 796" fill="none" xmlns="http://www.w3.org/2000/svg">
<path d="M1007.7 477.5C1043.4 477.5 1068.4 459.6 1068.4 432.4V432.3C1068.4 411.8 1056.5 400.4 1027.5 394.4L1003.9 389.4C989.9 386.4 985.1 381.8 985.1 374.6V374.5C985.1 365.6 993.3 359.7 1006.3 359.7C1020.3 359.7 1028.4 367.2 1029.7 377.2L1029.8 378.2H1064.6V376.9C1063.7 352.6 1043.1 333 1006.2 333C970.9 333 948.1 350.1 948.1 376.5V376.6C948.1 397.3 961.7 410.8 988.6 416.5L1012.2 421.4C1025.8 424.4 1030.5 428.7 1030.5 436V436.1C1030.5 445 1021.8 450.6 1007.6 450.6C992.5 450.6 984.3 444.3 981.8 433.4L981.5 432.2H944.6L944.7 433.4C947.9 459.8 969.3 477.5 1007.7 477.5Z" fill="white"/>
<path d="M910.4 477.5C918.3 477.5 924.4 476.7 928.7 476.1V448.4C926.4 448.7 923.9 449 920.5 449C909.1 449 903.3 444.6 903.3 431.7V364.4H928.7V335.9H903.3V302H865.1V335.9H845.8V364.4H865.1V435.9C865.1 465.6 879.6 477.5 910.4 477.5Z" fill="white"/>
<path d="M754.4 474.7H792.2V397C792.2 376.8 803.1 365.7 821.7 365.7C827.1 365.7 832.3 366.5 835.4 367.8V334.5C832.6 333.7 828.7 333.1 824.5 333.1C808.3 333.1 797.1 343.1 792.9 360.2H792.1V336H754.3V474.7H754.4Z" fill="white"/>
<path d="M666.7 477.5C708.6 477.5 735.5 450.6 735.5 405.3V405C735.5 360.1 708.2 333 666.6 333C625.2 333 598 360.3 598 405V405.3C598 450.5 624.5 477.5 666.7 477.5ZM666.8 447.9C648.2 447.9 636.4 432.5 636.4 405.3V405C636.4 378.2 648.3 362.7 666.6 362.7C685 362.7 697 378.2 697 405V405.3C697 432.4 685.2 447.9 666.8 447.9Z" fill="white"/>
<path d="M446.7 520H484.5V451H485.3C492.8 467.4 508.5 477.5 528.3 477.5C563 477.5 584.5 450.3 584.5 405.3V405.2C584.5 360 563 333.1 527.8 333.1C508.1 333.1 493 343.3 485.5 360.2H484.6V336H446.8V520H446.7ZM515.3 446.2C496.9 446.2 484.4 430.4 484.4 405.4V405.3C484.4 380.2 497 364.4 515.3 364.4C534.1 364.4 546 379.8 546 405.2V405.3C546 430.5 534.1 446.2 515.3 446.2Z" fill="white"/>
<path d="M351.6 477.9C398.7 477.9 427 455.1 427 419.2V419.1C427 389.7 409.4 373.8 370.3 366L350.5 362C329 357.7 319.4 350.9 319.4 339.1V339C319.4 325.7 331.4 316.5 351.5 316.3C370.8 316.3 384.3 325.2 386.2 339.9L386.3 341.5H423.2L423.1 339C421.3 306.2 394.7 284.6 351.5 284.6C310.1 284.6 280.3 307.1 280.3 341.3V341.4C280.3 369.5 298.9 387.1 335.8 394.5L355.5 398.4C378.7 403.2 387.9 409.5 387.9 422.2V422.3C387.9 436.5 374.3 446 352.7 446C331.3 446 315.9 436.9 313.5 422.4L313.2 421H276.3L276.4 423.1C278.6 457.6 307.2 477.9 351.6 477.9Z" fill="white"/>
<path d="M179.7 307.4C185.9 299.9 190.3 289.7 190.3 279.3C190.3 277.9 190.2 276.5 189.9 275.3C179.8 275.7 167.6 282 160.4 290.6C154.7 297.1 149.4 307.4 149.4 317.8C149.4 319.4 149.7 320.9 149.8 321.4C150.4 321.5 151.5 321.7 152.5 321.7C161.5 321.7 172.9 315.6 179.7 307.4ZM186.8 323.9C171.7 323.9 159.4 333.1 151.5 333.1C143.1 333.1 132.1 324.4 118.9 324.4C93.9 324.4 68.5 345.1 68.5 384.1C68.5 408.4 77.8 434.1 89.5 450.6C99.5 464.6 108.1 476.1 120.7 476.1C133.1 476.1 138.6 467.8 154 467.8C169.7 467.8 173.2 475.8 186.9 475.8C200.5 475.8 209.6 463.4 218.1 451.1C227.7 437 231.7 423.3 231.8 422.6C231 422.3 205 411.7 205 381.9C205 356.1 225.5 344.6 226.6 343.7C213.1 324.4 192.5 323.9 186.8 323.9Z" fill="white"/>
</svg>
