<svg width="2500" height="531" viewBox="0 0 2500 531" fill="none" xmlns="http://www.w3.org/2000/svg">
<path fill-rule="evenodd" clip-rule="evenodd" d="M98.9204 97.7739H279.07C295.543 97.8082 311.332 104.367 322.98 116.015C334.628 127.664 341.187 143.452 341.222 159.925V340.062C341.194 356.538 334.638 372.332 322.988 383.984C311.339 395.636 295.547 402.195 279.07 402.226H98.9204C82.4441 402.195 66.6517 395.636 55.0024 383.984C43.3532 372.332 36.7967 356.538 36.7693 340.062V159.925C36.8001 143.451 43.3581 127.661 55.007 116.012C66.6559 104.363 82.4464 97.8048 98.9204 97.7739ZM2308.49 258.119C2299.47 246.394 2295.87 218.471 2321.99 218.471H2356.22C2394.06 215.773 2390.47 169.834 2358.02 172.532H2191.38V240.078H2192.29L2191.38 349.984C2191.38 410.319 2128.34 409.411 2128.34 349.984V159.925C2128.34 128.396 2140.04 113.986 2171.58 113.986H2358.02C2461.62 113.986 2469.73 237.393 2394.06 268.015L2447.21 331.061C2487.74 381.5 2443.62 422.939 2401.26 375.184L2308.49 258.119ZM1671.66 131.093C1725.69 101.367 1763.54 145.503 1716.7 171.624L1593.28 241.881L1732.92 333.772C1780.64 364.393 1736.51 404.016 1684.28 372.499L1511.31 266.212V349.076C1511.31 406.727 1448.27 410.332 1448.27 349.076V154.53C1448.27 92.3785 1511.31 97.7869 1511.31 154.53V222.984L1671.66 131.093ZM1244.68 399.515C1061.83 399.515 1064.53 105.88 1244.68 105.88L1380.7 104.985C1414.03 104.985 1412.24 167.136 1377.99 167.136C1356.38 167.136 1266.3 168.031 1245.59 168.031C1158.23 168.031 1151.01 337.377 1246.5 337.377H1377.1C1411.33 337.377 1406.82 399.515 1377.1 399.515H1244.68Z" fill="white"/>
<path fill-rule="evenodd" clip-rule="evenodd" d="M1053.73 112.183C1110.47 112.183 1114.08 171.624 1052.83 171.624H850.155V220.26H962.759C1021.3 220.26 1023.11 277.911 962.759 277.911H850.155V331.061H1054.62C1114.08 331.061 1115.88 389.606 1054.62 389.606H828.534C799.703 389.606 786.188 380.618 786.188 349.984V157.227C786.188 127.5 797.9 112.183 829.429 112.183H1053.73ZM2032.85 112.183C2089.6 112.183 2093.19 171.624 2031.95 171.624H1828.39V220.26H1941.87C2000.44 220.26 2002.23 277.911 1941.87 277.911H1828.39V331.061H2033.75C2092.32 331.061 2095.01 389.606 2033.75 389.606H1807.66C1778.83 389.606 1765.33 380.618 1765.33 349.984V157.227C1765.33 127.5 1777.03 112.183 1808.57 112.183H2032.85ZM477.235 390.527C452.009 390.527 433.994 380.618 433.994 351.8V158.122C433.994 129.29 447.509 113.078 477.235 113.078H644.779C725.84 113.078 762.778 192.336 714.141 242.789C786.201 272.515 752.869 390.514 653.793 390.514L477.235 390.527ZM605.143 273.423C574.522 273.423 573.614 221.181 605.143 221.181H645.674C689.81 221.181 681.704 167.136 644.779 167.136H503.357C496.158 167.136 487.144 163.53 487.144 185.151V314.862C487.144 330.166 489.842 336.469 503.357 336.469H651.082C708.733 336.469 707.825 273.423 649.279 273.423H605.143Z" fill="white"/>
<path fill-rule="evenodd" clip-rule="evenodd" d="M161.072 285.122C175.481 285.122 187.193 296.847 187.193 312.151C187.193 326.56 175.481 338.272 161.072 338.272C146.662 338.272 134.056 326.573 134.056 312.151C134.076 304.991 136.929 298.13 141.99 293.066C147.052 288.002 153.912 285.146 161.072 285.122Z" fill="black"/>
<path fill-rule="evenodd" clip-rule="evenodd" d="M222.328 134.699L234.934 156.319H142.149L191.693 257.198H265.556L272.767 270.699H198.904V271.607C209.708 282.424 216.919 296.834 216.919 312.138C216.919 342.759 191.706 367.078 161.979 367.078C154.752 367.124 147.586 365.735 140.9 362.99C134.213 360.246 128.138 356.201 123.027 351.09C117.916 345.979 113.871 339.904 111.127 333.217C108.382 326.531 106.993 319.366 107.039 312.138C107.039 282.424 131.358 256.303 161.979 256.303C164.677 256.303 168.283 256.303 170.993 257.185H176.389L115.133 134.686L222.328 134.699ZM167.375 270.712H161.966C139.451 270.712 121.436 290.543 121.436 312.151C121.414 317.48 122.447 322.76 124.476 327.688C126.505 332.615 129.489 337.092 133.257 340.86C137.025 344.628 141.502 347.613 146.43 349.642C151.357 351.67 156.638 352.704 161.966 352.681C183.587 352.681 202.497 334.666 202.497 312.151C202.51 292.346 187.193 274.331 167.375 270.712Z" fill="black"/>
</svg>
