<svg width="2500" height="916" viewBox="0 0 2500 916" fill="none" xmlns="http://www.w3.org/2000/svg">
<path fill-rule="evenodd" clip-rule="evenodd" d="M1372.75 348.535H1174C1165.39 348.535 1158.3 341.778 1158.3 333.672V165.493C1158.3 157.218 1165.4 150.461 1174 150.461H1372.75V62.3181H1136.85C1043.3 62.3181 1051.23 151.304 1051.23 151.304V351.233C1051.23 445.951 1136.85 436.677 1136.85 436.677H1372.75V348.535ZM279.55 766.122H129.425C123.005 766.122 117.597 761.051 117.597 754.8V627.839C117.597 621.756 123.005 616.698 129.425 616.698H279.537V549.994H101.385C30.8032 549.994 36.886 617.204 36.886 617.204V768.159C36.886 839.752 101.385 832.657 101.385 832.657H279.537V766.122H279.55ZM1428.11 549.644V616.348H1288.49C1288.49 616.348 1279.03 617.541 1278 628.513C1276.99 639.836 1284.59 641.69 1284.59 641.69L1385.91 675.97C1385.91 675.97 1445.34 694.568 1445.34 738.134V775.954C1445.34 775.954 1445.69 832.67 1382.69 832.67H1208.26V765.967H1360.75C1367.84 765.967 1374.76 760.571 1374.76 751.635C1374.76 739.47 1359.89 735.099 1359.89 735.099L1247.28 696.423C1247.28 696.423 1207.42 682.74 1207.42 651.184V607.113C1207.42 607.113 1208.11 549.683 1272.42 549.683C1295.59 549.644 1428.11 549.644 1428.11 549.644ZM669.785 551.162H747.629V764.605H879.843V831.308H669.785V551.162ZM1475.58 551.162H1703.7V620.576H1628.24V831.308H1550.39V620.576H1475.58V551.162ZM1825.44 831.127H1747.6V551.162H1825.44V831.127ZM1948.73 623.429V757.51C1948.73 763.762 1953.95 768.833 1960.54 768.833H2052.74C2059.33 768.833 2064.72 763.762 2064.72 757.51V623.429C2064.72 617.204 2059.33 612.132 2052.74 612.132H1960.54C1953.95 612.132 1948.73 617.204 1948.73 623.429ZM2072.83 549.138C2072.83 549.138 2139.7 544.249 2139.7 616.348V768.846C2139.7 768.846 2143.07 833.513 2072.83 833.513H1940.12C1940.12 833.513 1875.27 840.426 1875.27 768.846V616.348C1875.27 616.348 1869.37 549.138 1939.94 549.138H2072.83ZM2403.28 551.162H2186.97V831.308H2264.82V617.709H2376.42C2383.01 617.709 2388.25 622.781 2388.25 629.006V831.308H2463.23V618.371C2463.24 545.766 2403.28 551.162 2403.28 551.162ZM463.773 617.709H617.776V551.162H403.489C396.044 551.668 389.034 554.855 383.757 560.131C378.48 565.408 375.294 572.418 374.787 579.864V802.606C375.304 810.077 378.516 817.106 383.826 822.385C389.137 827.665 396.185 830.836 403.658 831.308H617.776V764.605H463.773C456.173 764.281 450.09 758.522 449.753 751.259V724.58H570.657V661.43H449.753V631.029C450.09 623.935 456.173 618.215 463.773 617.709ZM1009.02 617.709H1163.02V551.162H948.738C941.292 551.665 934.281 554.851 929.003 560.128C923.726 565.406 920.54 572.417 920.036 579.864V802.606C920.553 810.077 923.765 817.106 929.075 822.385C934.386 827.665 941.433 830.836 948.907 831.308H1163.02V764.605H1009.02C1005.45 764.509 1002.04 763.092 999.446 760.627C996.857 758.162 995.273 754.824 995.002 751.259V724.58H1116.07V661.43H995.002V631.029C995.339 623.935 1001.42 618.215 1009.02 617.709Z" fill="white"/>
<path fill-rule="evenodd" clip-rule="evenodd" d="M1441.29 125.481L1315.32 250.094L1441.29 374.539V125.481Z" fill="#CC2131"/>
<path fill-rule="evenodd" clip-rule="evenodd" d="M334.594 597.775L239.526 691.832L334.594 785.888V597.775Z" fill="white"/>
<path fill-rule="evenodd" clip-rule="evenodd" d="M334.594 597.775L239.526 691.832L334.594 785.888V597.775Z" fill="#CC2131"/>
</svg>
