<svg width="472" height="121" viewBox="0 0 472 121" fill="none" xmlns="http://www.w3.org/2000/svg">
<path d="M0.200012 0.5V120.3H120V0.5H0.200012ZM84.5 101.4H35.5V88.3H84.5V101.4ZM84.2 54.3C83.4 60.5 80.6 66.2 76.1 70.6C69.8 76.7 64.3 77.8 56 77.8H35.6V65H54C65 65 70.2 59.9 70.2 48.4C70.2 37.9 64.5 32 53.9 32H35.6V19.4H54C63.3 19.4 69.9 20.6 76 26.4C80.5 30.6 83.2 36.2 84.2 43.2L84.3 43.6C84.7 47.1 84.7 50.7 84.2 54.3Z" fill="white"/>
<path d="M152.6 74.0998H141.8V66.7998H171.2V74.0998H160.5V104.3H152.6V74.0998Z" fill="white"/>
<path d="M179.5 66.7998H193.2C201.1 66.7998 206.7 71.8998 206.7 79.0998C206.7 83.6998 203.9 87.8998 199.7 89.5998L208.5 104.2H199.5L192.2 91.5998H187.4V104.2H179.5V66.7998ZM187.4 74.0998V84.3998H193.5C196.7 84.3998 198.7 82.2998 198.7 79.2998C198.7 76.2998 196.6 74.1998 193.5 74.1998L187.4 74.0998Z" fill="white"/>
<path d="M212.4 104.3L228.6 66.7998H232.3L248.5 104.3H239.9L237.7 98.7998H222.9L220.8 104.3H212.4ZM235.1 91.9998L230.3 79.9998L225.5 91.9998H235.1Z" fill="white"/>
<path d="M282.4 66.7998L266.5 104.3H262.8L246.9 66.7998H255.7L264.9 90.1998L273.7 66.8998L282.4 66.7998Z" fill="white"/>
<path d="M289.8 66.7998H314.2V74.0998H297.8V81.7998H312.3V89.0998H297.8V96.9998H314.2V104.3H289.8V66.7998Z" fill="white"/>
<path d="M324.4 66.7998H332.3V96.9998H348.6V104.3H324.4V66.7998Z" fill="white"/>
<path d="M141.9 13.1001H153.9C166 13.1001 173.7 21.0001 173.7 31.8001C173.7 42.6001 166 50.5001 153.9 50.5001H141.9V13.1001ZM165.5 31.8001C165.5 25.3001 161 20.3001 154.8 20.3001H149.8V43.2001H154.8C161 43.3001 165.5 38.2001 165.5 31.8001Z" fill="white"/>
<path d="M183 13.1001H207.4V20.4001H191V28.1001H205.5V35.4001H191V43.3001H207.4V50.6001H183V13.1001Z" fill="white"/>
<path d="M233.3 12.5001C236.7 12.4001 240 13.2001 243 14.7001V22.2001C240.2 20.7001 237.1 20.0001 233.9 20.0001C227.5 20.0001 222.6 24.4001 222.6 31.8001C222.6 39.2001 227.6 43.6001 234.4 43.6001C237.5 43.6001 240.5 43.0001 243.3 41.7001V49.2001C240.9 50.4001 237.7 51.1001 233.7 51.1001C222.7 51.1001 214.5 43.2001 214.5 31.8001C214.5 20.7001 222.8 12.5001 233.3 12.5001Z" fill="white"/>
<path d="M248.4 50.5L264.6 13H268.4L284.6 50.5H276L273.8 45H259L256.9 50.5H248.4ZM271.1 38.3L266.3 26.3L261.5 38.3H271.1Z" fill="white"/>
<path d="M294.2 20.3H283.4V13H312.8V20.3H302V50.5H294.1V20.3H294.2Z" fill="white"/>
<path d="M321 13.1001H328.9V27.8001H344.3V13.1001H352.2V50.6001H344.3V35.3001H329V50.6001H321V13.1001Z" fill="white"/>
<path d="M364.3 13.1001H372.2V43.3001H388.5V50.6001H364.3V13.1001Z" fill="white"/>
<path d="M394.3 31.8C394.3 20.7 402.5 12.5 413.3 12.5C424.1 12.5 432.2 20.6 432.2 31.8C432.2 43 424 51.1 413.3 51.1C402.5 51.1 394.3 42.9 394.3 31.8ZM424.1 31.8C424.1 25 419.5 20 413.3 20C407.1 20 402.5 24.9 402.5 31.8C402.5 38.7 407.1 43.6 413.3 43.6C419.5 43.6 424.1 38.6 424.1 31.8Z" fill="white"/>
<path d="M468.3 50.5L449.3 28.7V50.5H441.6V13H445.3L464.3 34.7V13H472V50.5H468.3Z" fill="white"/>
</svg>
