<svg width="2500" height="539" viewBox="0 0 2500 539" fill="none" xmlns="http://www.w3.org/2000/svg">
<path fill-rule="evenodd" clip-rule="evenodd" d="M62.4624 376.907H259.266C298.447 376.907 319.705 409.007 319.705 440.433C319.705 470.756 297.345 502.415 259.266 502.415H62.4624V376.907ZM91.6833 406.115H251.302C281.625 406.115 290.484 423.157 290.484 439.979C290.484 456.139 280.744 473.194 251.302 473.194H91.6833V406.115ZM393.853 473.648V454.829H516.495V426.049H393.853V405.687H571.163V376.907H364.191V502.428H570.514V473.648H393.853ZM832.166 502.428L632.717 411.212V502.428H601.94V376.907H632.043L828.405 467.877V376.907H858.949V502.428H832.166ZM996.869 405.233V502.428H965.43V405.233H882.865V376.907H1079.43V405.233H996.869ZM1199.42 369.151L1052.43 502.415H1093.83L1117.51 480.704H1282.67L1306.35 502.415H1347.74L1200.52 369.151H1199.42ZM1253.88 454.829H1146.29L1200.08 405.894L1253.88 454.829ZM1560.25 448.189C1560.25 474.53 1494.95 474.53 1473.49 474.53C1452.02 474.53 1386.93 474.53 1386.93 445.724V376.894H1359.24V457.903C1359.24 487.565 1414.16 502.415 1473.49 502.415C1532.79 502.415 1587.91 487.565 1587.91 457.903V376.894H1560.25V448.189ZM2095.97 448.189C2095.97 474.53 2030.66 474.53 2009.19 474.53C1987.73 474.53 1922.65 474.53 1922.65 445.724V376.894H1894.96V457.903C1894.96 487.565 1949.87 502.415 2009.19 502.415C2068.53 502.415 2123.66 487.565 2123.66 457.903V376.894H2095.97V448.189ZM1809.97 376.907H1624.44V502.428H1654.79V470.989H1759.93L1810.85 502.195L1859.99 502.428L1809.97 470.989C1835.64 470.989 1851.36 444.842 1851.14 419.409C1851.14 393.962 1834.53 376.907 1809.97 376.907ZM1654.55 443.299H1807.74C1823.68 443.299 1823.68 404.571 1807.74 404.571H1654.55V443.299ZM2201.35 410.978L2303.4 502.195V502.428L2405.89 410.978V502.428H2437.52V369.164H2407.43L2303.6 462.585L2199.79 369.164H2169.47V502.428H2201.33V410.978H2201.35ZM1031.62 70.522V92.2204L1032.95 90.0156L1034.49 89.1206L1036.27 88.0182L1038.05 87.5643H1369.88L1378.06 88.0182L1386.47 89.1206L1395.11 91.3385L1403.74 94.4383L1412.59 98.2125L1420.8 102.856L1428.98 108.173L1436.74 114.593L1443.81 121.895L1450.47 129.859L1456.66 138.497L1461.55 148.237L1465.75 158.418L1468.84 169.935L1470.62 181.88L1471.28 194.941L1470.62 208.002L1468.84 219.96L1465.75 231.256L1461.55 241.438L1456.66 249.842L1450.25 258.48L1450.49 258.259C1455.35 254.057 1459.98 248.299 1461.99 246.081L1468.63 238.117L1474.61 229.259L1479.47 219.739L1483.7 209.337L1487 198.054L1488.57 185.875L1489.45 173.035L1488.57 159.975L1487 148.029L1483.7 136.733L1479.47 126.551L1474.61 116.591L1468.63 107.953L1461.99 99.7688L1454.7 92.6873L1446.95 86.4878L1438.97 80.9497L1430.57 76.3065L1421.93 72.5453L1413.08 69.4455L1404.44 67.4612L1396.04 66.3458L1387.83 65.6843H1040.25L1038.05 65.9048L1036.27 66.3458L1034.49 67.4612L1032.95 68.3431L1031.62 70.522ZM1503.13 285.249L1484.53 308.945L1479.24 314.263L1473.92 319.36L1468.18 324.224L1462.43 328.854L1456.22 332.861L1449.79 336.843L1443.15 340.591L1436.51 343.938L1429.41 346.804L1422.34 349.463L1414.82 351.668L1407.5 353.445L1399.75 355.014L1392.02 356.103L1384.04 356.765L1375.86 356.998H968.53L965.871 356.57L963.433 355.909L961.215 354.793L959.218 353.016L957.674 351.019L956.572 348.814L955.69 346.376L955.249 343.717V49.0441L955.69 46.6058L956.572 43.9469L957.674 41.7421L976.494 18.0464L975.158 20.4846L974.496 22.923L974.042 25.5817V320.008L974.496 322.667L975.158 325.106L976.494 327.31L978.037 329.515L979.814 331.085L982.019 332.2L984.69 332.861L987.116 333.289H1394.44L1402.63 333.056L1410.6 332.395L1418.56 331.279L1426.08 329.956L1433.6 327.959L1440.91 325.754L1448.2 323.095L1455.06 320.229L1461.93 316.883L1468.36 313.368L1474.77 309.36L1480.95 305.158L1486.93 300.528L1492.48 295.651L1497.8 290.554L1503.13 285.249ZM991.772 18.2798H1391.33C1477.23 18.2798 1540.33 96.6431 1540.33 175.888C1540.33 255.367 1477.23 328.413 1391.33 328.413H991.772C990.065 328.451 988.368 328.147 986.78 327.518C985.193 326.889 983.748 325.948 982.53 324.751C981.313 323.554 980.347 322.125 979.692 320.548C979.036 318.972 978.702 317.28 978.711 315.573V31.1199C978.711 23.8179 984.47 18.2798 991.772 18.2798ZM1036.49 61.2227H1390.46C1434.08 61.2227 1493.84 99.0814 1493.84 173.23C1493.84 247.391 1434.09 285.249 1390.46 285.249H1036.49C1030.53 285.249 1026.09 281.047 1026.09 275.509V70.963C1026.09 65.6583 1030.51 61.2227 1036.49 61.2227Z" fill="white"/>
</svg>
