<svg width="168" height="104" viewBox="0 0 168 104" fill="none" xmlns="http://www.w3.org/2000/svg">
<path d="M16.35 54.08C16.58 54.92 16.94 55.69 17.43 56.4C17.91 57.1 18.49 57.72 19.15 58.24C19.81 58.76 20.55 59.16 21.37 59.45C22.19 59.74 23.06 59.89 23.94 59.88C25.29 59.88 26.47 59.6 27.47 59.03C28.48 58.47 29.28 57.83 29.88 57.1H34.75C34.29 58.09 33.68 59.01 32.96 59.83C32.23 60.67 31.39 61.4 30.46 62.02C29.51 62.65 28.48 63.14 27.4 63.47C26.31 63.83 25.15 64 23.94 64C22.3 64 20.75 63.68 19.3 63.05C17.88 62.44 16.6 61.56 15.51 60.47C14.42 59.37 13.55 58.08 12.95 56.66C12.31 55.19 11.99 53.6 12 52C12 50.35 12.31 48.8 12.95 47.34C13.56 45.92 14.43 44.62 15.51 43.53C16.6 42.44 17.89 41.56 19.3 40.95C20.76 40.31 22.34 39.99 23.94 40C25.58 40 27.12 40.32 28.58 40.95C30 41.56 31.28 42.44 32.37 43.53C33.46 44.63 34.33 45.92 34.94 47.34C35.57 48.8 35.89 50.35 35.89 52C35.89 52.38 35.88 52.74 35.85 53.08C35.82 53.43 35.78 53.76 35.72 54.08H16.35ZM31.53 49.96C31.3 49.13 30.95 48.34 30.47 47.62C30 46.91 29.42 46.28 28.75 45.76C28.08 45.24 27.33 44.83 26.53 44.55C25.7 44.26 24.82 44.11 23.94 44.12C23.06 44.12 22.2 44.27 21.37 44.57C20.56 44.87 19.81 45.28 19.13 45.8C18.46 46.32 17.88 46.94 17.4 47.64C16.92 48.35 16.57 49.13 16.34 49.96H31.53ZM36.62 42.86L39.55 40L48.26 49.05L56.97 40L59.9 42.86L51.1 52L59.9 61.14L56.97 64L48.26 54.95L39.55 64L36.62 61.14L45.41 52L36.62 42.86ZM62.44 51.39C62.44 49.83 62.73 48.36 63.32 46.97C63.89 45.61 64.72 44.38 65.76 43.33C66.8 42.29 68.03 41.46 69.38 40.88C70.77 40.29 72.27 39.98 73.78 39.99C75.33 39.99 76.8 40.29 78.18 40.88C79.53 41.45 80.76 42.29 81.8 43.33C82.84 44.38 83.66 45.61 84.23 46.97C84.82 48.37 85.12 49.87 85.11 51.39V63.3H80.63V51.17C80.64 50.25 80.45 49.33 80.09 48.49C79.75 47.67 79.25 46.93 78.63 46.3C78 45.67 77.27 45.17 76.45 44.83C75.61 44.47 74.7 44.28 73.78 44.29C72.83 44.29 71.94 44.47 71.11 44.83C70.28 45.19 69.55 45.68 68.93 46.3C68.31 46.93 67.81 47.67 67.46 48.49C67.1 49.34 66.91 50.25 66.92 51.18V63.31H62.44V51.39ZM92.58 54.08C92.81 54.92 93.17 55.69 93.66 56.4C94.14 57.1 94.72 57.72 95.38 58.24C96.04 58.76 96.78 59.16 97.6 59.45C98.42 59.74 99.29 59.89 100.17 59.88C101.52 59.88 102.7 59.6 103.71 59.03C104.71 58.47 105.52 57.83 106.12 57.1H110.99C110.53 58.09 109.92 59.01 109.2 59.83C108.47 60.67 107.63 61.4 106.7 62.02C105.75 62.65 104.72 63.14 103.64 63.47C102.53 63.82 101.38 63.99 100.17 63.99C98.53 63.99 96.99 63.67 95.53 63.04C94.11 62.43 92.83 61.55 91.74 60.46C90.65 59.36 89.78 58.07 89.17 56.65C88.54 55.18 88.21 53.59 88.22 51.99C88.22 50.34 88.54 48.79 89.17 47.33C89.78 45.91 90.65 44.62 91.74 43.52C92.83 42.43 94.12 41.55 95.53 40.94C96.99 40.3 98.57 39.98 100.16 39.99C101.8 39.99 103.34 40.31 104.8 40.94C106.22 41.55 107.5 42.43 108.59 43.52C109.68 44.62 110.55 45.91 111.16 47.33C111.79 48.79 112.11 50.34 112.11 51.99C112.11 52.37 112.1 52.73 112.07 53.07C112.04 53.42 112 53.75 111.94 54.07L92.58 54.08ZM107.76 49.96C107.53 49.13 107.18 48.34 106.7 47.62C106.23 46.91 105.65 46.28 104.98 45.76C104.31 45.24 103.56 44.83 102.76 44.55C101.93 44.26 101.05 44.11 100.17 44.12C99.29 44.12 98.43 44.27 97.6 44.57C96.79 44.87 96.04 45.28 95.36 45.8C94.69 46.32 94.11 46.94 93.64 47.64C93.16 48.35 92.81 49.13 92.58 49.96H107.76ZM124.7 64C122.08 64 119.82 63.39 117.91 62.16C116 60.93 114.66 59.25 113.88 57.11H118.67C119.27 58.03 120.11 58.75 121.19 59.26C122.28 59.77 123.46 60.03 124.66 60.02C126.15 60.02 127.31 59.75 128.13 59.22C128.95 58.69 129.36 57.96 129.36 57.03C129.36 56.28 129.06 55.7 128.48 55.3C127.89 54.9 126.91 54.56 125.53 54.3L122.17 53.65C119.53 53.16 117.6 52.38 116.39 51.31C115.18 50.24 114.58 48.8 114.58 46.98C114.58 45.97 114.8 45.04 115.25 44.19C115.7 43.33 116.33 42.58 117.1 41.98C117.89 41.36 118.83 40.88 119.92 40.53C121.01 40.18 122.22 40.01 123.54 40.01C125.98 40.01 128.1 40.59 129.88 41.77C131.66 42.94 132.91 44.56 133.63 46.64H128.84C128.35 45.8 127.64 45.15 126.71 44.69C125.78 44.23 124.73 44 123.58 44C122.2 44 121.13 44.25 120.37 44.76C119.61 45.27 119.23 45.98 119.23 46.9C119.23 47.56 119.52 48.1 120.11 48.5C120.7 48.9 121.67 49.24 123.02 49.49L126.38 50.14C128.99 50.63 130.92 51.43 132.16 52.54C133.4 53.65 134.01 55.12 134.01 56.94C134.01 57.98 133.78 58.93 133.32 59.78C132.84 60.65 132.19 61.41 131.4 62.01C130.58 62.65 129.6 63.14 128.45 63.48C127.3 63.83 126.05 64 124.7 64ZM146.69 64C144.07 64 141.81 63.39 139.9 62.16C137.99 60.93 136.65 59.25 135.87 57.11H140.65C141.25 58.03 142.1 58.75 143.17 59.26C144.26 59.77 145.44 60.03 146.64 60.02C148.13 60.02 149.29 59.75 150.11 59.22C150.93 58.69 151.34 57.96 151.34 57.03C151.34 56.28 151.04 55.7 150.46 55.3C149.87 54.9 148.89 54.56 147.51 54.3L144.15 53.65C141.5 53.16 139.58 52.38 138.37 51.31C137.16 50.24 136.56 48.8 136.56 46.98C136.56 45.97 136.78 45.04 137.23 44.19C137.68 43.33 138.31 42.58 139.08 41.98C139.87 41.36 140.81 40.88 141.9 40.53C142.99 40.18 144.2 40.01 145.52 40.01C147.96 40.01 150.08 40.59 151.86 41.77C153.64 42.94 154.89 44.56 155.61 46.64H150.82C150.33 45.8 149.62 45.15 148.69 44.69C147.76 44.23 146.71 44 145.56 44C144.18 44 143.11 44.25 142.35 44.76C141.59 45.27 141.21 45.98 141.21 46.9C141.21 47.56 141.5 48.1 142.09 48.5C142.68 48.9 143.65 49.24 145 49.49L148.36 50.14C150.97 50.63 152.9 51.43 154.14 52.54C155.38 53.65 155.99 55.12 155.99 56.94C155.99 57.98 155.76 58.93 155.3 59.78C154.82 60.65 154.17 61.41 153.38 62.01C152.56 62.65 151.58 63.14 150.43 63.48C149.29 63.83 148.04 64 146.69 64Z" fill="white"/>
</svg>
