<svg width="2500" height="739" viewBox="0 0 2500 739" fill="none" xmlns="http://www.w3.org/2000/svg">
<path fill-rule="evenodd" clip-rule="evenodd" d="M1927.05 606.695V517.229H1959.1V594.672L2090.14 397.946L1959.1 231.376V303.397H1927.05V214.878H2072.69L2148.2 311.646L2212.59 214.878H2329.05L2210.7 391.902L2463.26 715.848H2339.84L2152.97 478.216L2067.3 606.695H1927.05ZM1927.05 438.243H1959.1V350.36H1927.05V438.243ZM1927.05 214.878V303.397H1763.97V350.36H1927.05V438.243H1763.97V517.229H1927.05V606.695H1664.03V453.768C1644.37 540.069 1569.8 602.259 1481.6 606.695V516.282C1531.73 507.087 1569.5 463.288 1569.5 410.631C1569.5 357.974 1531.73 314.499 1481.6 304.979V214.878C1524.5 216.761 1565.59 232.685 1598.55 260.201C1631.51 287.717 1654.52 325.3 1664.03 367.169V214.878H1927.05ZM702.404 350.347V303.384H897.521V214.865H602.77V350.334H279.473V438.217H496.807C391.791 602.869 136.701 528.63 136.701 333.513C136.701 225.643 224.26 138.395 332.13 138.395C362.19 138.441 391.839 145.387 418.791 158.699C445.743 172.011 469.279 191.333 487.585 215.176L602.757 214.852C555.806 107.618 449.519 38.1392 332.13 38.1392C169.061 38.1392 36.7563 170.444 36.7563 333.513C36.7563 496.581 169.061 628.575 332.13 628.575C389.615 628.591 445.853 611.813 493.931 580.301C542.01 548.789 579.835 503.918 602.757 451.2V606.656H897.508V517.19H702.404V438.205H897.521V350.321H702.404V350.347ZM1481.6 214.878V304.979C1475.21 303.966 1468.74 303.432 1462.26 303.384H1393.41V517.878H1462.56C1468.89 517.878 1475.27 517.216 1481.6 516.282V606.695H1295.06V214.567H1473.04C1475.89 214.567 1478.77 214.878 1481.6 214.878ZM1008.88 431.577V606.695H918.143V200.287L1183.06 469.954V213.918H1276.67V706.653L1008.88 431.577Z" fill="white"/>
<path fill-rule="evenodd" clip-rule="evenodd" d="M2347.13 443.639C2354.99 443.665 2362.78 442.129 2370.05 439.121C2377.32 436.113 2383.92 431.692 2389.47 426.115C2395.01 420.538 2399.4 413.915 2402.37 406.631C2405.34 399.346 2406.83 391.545 2406.76 383.679C2406.76 350.36 2379.47 325.614 2347.13 325.614V335.121C2373.78 335.121 2395.02 356.378 2395.02 383.679C2395.02 412.226 2373.77 433.146 2347.13 433.146V443.639ZM2347.13 389.075V379.555C2356 379.555 2363.31 379.231 2363.31 369.075C2363.31 360.827 2356 359.244 2349.02 359.244H2347.13V350.36H2350.29C2366.15 350.36 2374.4 356.391 2374.4 369.4C2374.4 381.462 2366.77 386.52 2356.94 387.791L2376.29 417.933H2364.57L2347.13 389.075ZM2347.13 325.614C2314.44 325.614 2286.5 350.36 2286.5 383.679C2286.5 417.933 2314.44 443.314 2347.13 443.639V433.146C2320.15 432.848 2299.2 412.226 2299.2 383.679C2299.2 356.391 2320.15 335.121 2347.13 335.121V325.614ZM2347.13 350.36V359.244L2335.06 359.231V379.542L2347.13 379.555V389.075L2346.8 388.4H2335.08V417.907H2324.61V350.334H2347.13V350.36Z" fill="white"/>
</svg>
