<svg width="2500" height="474" viewBox="0 0 2500 474" fill="none" xmlns="http://www.w3.org/2000/svg">
<path fill-rule="evenodd" clip-rule="evenodd" d="M2146.82 184.646C2118.91 162.416 2065.41 160.328 1971.7 168.304H1904.88V418.18H1971.7V251.116C1971.7 224.969 1987.68 203.18 2038.52 203.18C2089.36 203.18 2103.9 222.064 2103.9 249.663V418.18H2170.72V251.116C2170.72 224.969 2186.7 203.18 2237.54 203.18C2288.39 203.18 2302.9 222.064 2302.9 249.663V418.18H2369.74V227.874C2369.77 191.559 2294.93 131.989 2146.82 184.646ZM665.232 335.407C665.232 361.554 649.253 383.33 598.412 383.33C547.57 383.33 533.031 364.446 533.031 336.846V168.33H466.198V358.635C466.198 392.512 491.619 435.637 631.744 422.006C643.443 418.919 663.78 418.919 671.043 418.193H732.052V168.33H665.232V335.407ZM1792.41 335.407C1792.41 361.554 1776.43 383.33 1725.59 383.33C1674.72 383.33 1660.21 364.446 1660.21 336.846V168.33H1593.39V358.635C1593.39 392.512 1618.8 435.637 1758.93 422.006C1770.63 418.919 1790.96 418.919 1798.22 418.193H1859.24V168.33H1792.42L1792.41 335.407ZM117.169 230.481C118.621 178.174 121.527 92.4699 237.749 92.4699C353.971 92.4699 351.053 175.269 349.613 223.218C348.173 271.167 343.803 304.564 329.276 343.798H406.278C410.636 327.819 429.52 291.504 429.52 215.955C429.52 48.8915 307.487 41.6284 237.762 41.6284C168.023 41.6284 34.3699 61.965 34.3699 230.494C32.9173 449.839 176.739 417.881 237.762 417.881H438.248V372.85H198.528C118.621 372.837 115.716 282.762 117.169 230.481ZM2388.69 136.437H2399.35V164.141H2403.61V136.437H2414.26V132.663H2388.69V136.437ZM2454.79 132.663L2445.85 159.277H2445.77L2436.79 132.663H2430.68V164.141H2434.8V145.555C2434.8 144.634 2434.7 140.653 2434.7 137.747H2434.8L2443.65 164.141H2447.87L2456.72 137.708H2456.82C2456.82 140.653 2456.72 144.634 2456.72 145.555V164.141H2460.84V132.663H2454.79ZM1481.64 114.454H1414.82V168.213H1356.72V213.244H1414.82V370.14C1414.82 400.645 1419.18 423.899 1481.64 425.339H1567.36V380.308H1503.42C1485.98 380.308 1481.63 373.032 1481.63 358.506V213.231H1567.34V168.2H1481.63L1481.64 114.454ZM904.939 156.683C806.149 156.683 768.381 203.167 768.381 236.59H832.296C838.106 198.809 880.232 191.546 904.939 191.546C929.647 191.546 961.604 203.167 961.604 223.503V251.103C939.815 262.724 871.529 262.724 839.572 264.177C775.657 268.534 750.949 301.945 752.402 338.26C757.382 429.269 870.401 426.934 933.59 420.994C942.707 419.982 1028.42 418.154 1028.42 418.154V224.956C1028.42 171.209 958.686 156.683 904.939 156.683ZM961.604 332.462C961.604 354.252 944.173 384.744 890.413 384.744C836.654 384.744 826.498 360.062 827.951 339.713C829.403 319.363 849.701 305.226 871.529 304.85C892.955 304.5 937.999 301.581 961.604 296.134V332.462ZM1169.54 164.491C1157.84 167.578 1137.5 167.578 1130.22 168.304H1069.21V418.18H1136.03V251.116C1136.03 224.956 1152.01 203.167 1202.85 203.167C1253.71 203.167 1268.22 222.064 1268.22 249.65V418.167H1335.07V227.874C1335.08 193.971 1309.65 150.873 1169.54 164.491Z" fill="white"/>
</svg>
