<svg width="600" height="450" viewBox="0 0 600 450" fill="none" xmlns="http://www.w3.org/2000/svg">
<path d="M471.2 173C472 173.4 472.4 174.2 473.2 174.6C477.2 178.6 481.1 182.5 484.7 186.1C484.3 197.6 480.4 208.2 474.8 218.1C465.3 234.3 449.9 246.5 431.7 252.1C426.6 253.7 421 254.9 415.9 254.9C411.9 250.9 408.4 247.4 404.4 243.4C403.6 242.6 402.8 242.2 402.4 241C419 239.8 435.2 232.7 447 221.2C455.3 213.3 462.4 203.4 466.4 192.8C469.2 186.9 470.8 180.1 471.2 173Z" fill="white"/>
<path d="M122.7 198.7C125.1 196.3 128.2 194.4 131.8 194.4C135 194 138.5 194.4 141.3 196.4C139.3 200.4 137.3 204.7 135.4 208.6C131.4 207 126.7 207 123.2 209.4C120.8 211 118.9 213.4 117.7 216.1C116.5 219.3 115.7 222.8 115.7 226C115.7 235.9 115.7 245.4 115.7 255.2C111.4 255.2 106.6 255.2 102.3 255.2C102.3 235.4 102.3 215.7 102.3 195.9C106.6 195.9 111 195.9 115.3 195.9C115.3 201 115.3 206.2 115.3 211.3C117.2 207 119.2 202.3 122.7 198.7Z" fill="white"/>
<path d="M153.2 197.9C158.3 194.3 165.1 193.9 171 194.3C175.7 194.7 180.9 195.9 184.8 199C188.4 201.8 190.7 206.5 191.5 210.9C192.3 213.7 192.3 216.4 192.3 219.6C192.3 231.5 192.3 243.3 192.3 255.2C188 255.2 183.6 255.2 179.3 255.2C179.3 252 179.3 248.9 179.3 245.3C178.1 247.7 176.5 250.4 174.6 252C171 254.8 166.7 256.3 162.4 256.3C156.9 256.7 150.9 255.5 146.6 252.3C143 249.9 140.7 245.6 139.9 241.2C139.5 237.6 139.9 233.7 141.9 230.1C143.5 227.3 145.9 225.4 148.6 223.8C151.4 222.2 154.9 221.4 158.1 220.6C163.6 219.4 169.2 219.4 174.3 217.8C176.3 217.4 178.3 216.2 179 214.6C180.2 212.2 179.8 209.5 178.2 207.5C176.6 205.5 174.2 204.7 171.9 204.3C168.3 203.5 164.8 203.9 161.6 205.5C158.4 207.1 156.5 210.2 155.7 213.8C152.1 212.2 148.2 211 144.6 209.8C145.6 205.4 148.8 200.7 153.2 197.9ZM176.1 224.4C173.3 226.4 169.8 227.2 166.2 228C163 228.4 160.3 229.2 157.5 230.8C155.5 232 153.5 234 153.2 236.7C152.8 239.5 153.2 242.2 154.8 244.6C156.4 246.6 158.4 247.4 160.7 247.8C164.7 248.6 169.4 247.8 172.6 245C175.8 242.6 177.7 239.1 178.5 235.1C179.7 230.4 179.3 225.2 179.3 220.1C178.8 221.6 177.6 223.2 176.1 224.4Z" fill="white"/>
<path d="M225.5 197.5C229.8 193.9 235.8 193.5 240.9 194.7C245.2 195.5 249.2 198.7 251.2 202.6C252.4 204.2 252.8 206.2 253.6 208.1C254.8 203.8 257.2 199.8 260.7 197C264.7 194.2 270.2 193.8 274.9 194.6C279.6 195.4 284 197.8 286.8 201.7C289.2 204.9 290.4 208.8 290.8 212.8C291.2 214.8 290.8 216.8 290.8 219.1C290.8 231.3 290.8 243.2 290.8 255.4C286.5 255.4 282.1 255.4 277.8 255.4C277.8 243.5 277.8 232.1 277.8 220.2C277.8 216.2 277.4 212.3 275 209.1C273.4 206.7 270.7 205.5 267.9 205.5C264.3 205.1 260.8 206.3 258.4 209.1C255.2 213.1 254.8 218.2 254.4 222.9C254.4 233.6 254.4 244.6 254.4 255.3C250.1 255.3 245.7 255.3 241.4 255.3C241.4 243.8 241.4 232.4 241.4 220.9C241.4 217.3 241 213.8 239.8 210.6C238.6 208.2 236.6 206.3 234.3 205.9C230.7 205.1 226.8 205.5 224 207.5C221.6 209.5 220.4 212.2 219.7 215C218.9 217.8 218.5 220.5 218.5 223.3C218.5 234 218.5 244.6 218.5 255.3C214.2 255.3 209.8 255.3 205.5 255.3C205.5 235.5 205.5 215.8 205.5 196C209.8 196 214.2 196 218.5 196C218.5 200.3 218.5 205.1 218.5 209.4C219.5 204.6 221.5 200.3 225.5 197.5Z" fill="white"/>
<path d="M325.4 197.5C329.4 194.7 334.9 193.9 339.6 194.3C345.1 194.7 350.7 197.5 354.6 201.4C358.9 205.7 361.7 211.3 362.9 217.2C364.1 223.1 364.1 229.1 362.5 234.6C361.3 240.1 358.5 245.7 354.2 250C349.9 254 344.3 256.3 338.8 256.7C333.7 257.1 328.1 256.3 324.2 252.7C321 250.3 318.7 246.4 317.5 242.4C317.5 254.3 317.5 265.7 317.5 277.6C312.8 277.6 308.4 277.6 303.7 277.6C303.7 250.3 303.7 222.7 303.7 195.4C308.4 195.4 312.8 195.4 317.5 195.4C317.5 199.4 317.5 203.3 317.5 207.3C319.1 203.8 321.5 199.9 325.4 197.5ZM330.2 205.4C328.6 205.8 327 206.2 325.5 207.4C321.9 209.4 319.2 213.3 318 217.3C316.4 222 316.4 227.2 317.6 232.3C318.4 237 321.2 241.4 325.1 243.8C329.1 246.2 333.8 246.6 338.1 245.4C342.4 244.2 346 241.1 348 237.1C350.8 232 351.2 226 350.4 220.5C349.6 215.8 347.2 211 343.3 207.9C339.2 205.4 334.5 204.6 330.2 205.4Z" fill="white"/>
<path d="M451.8 250.9C455.8 248.1 459.7 245 463.3 241.4C470.4 241.4 477.5 241.4 484.6 241.4C488.9 245.7 493.7 250.5 498 254.8C495.2 255.2 492.1 254.8 489.3 254.8C475.9 254.8 462 254.8 448.6 254.8C447.8 254.8 446.6 254.8 445.8 254.8C447.5 253.6 449.9 252.4 451.8 250.9Z" fill="white"/>
</svg>
