<svg width="2500" height="587" viewBox="0 0 2500 587" fill="none" xmlns="http://www.w3.org/2000/svg">
<path fill-rule="evenodd" clip-rule="evenodd" d="M294.634 541.92L110.295 196.834H209.099C249.577 88.9904 212.419 55.8008 180.902 34.7249C178.672 33.428 179.8 31.4825 182.316 32.2477C448.378 113.892 74.2001 329.93 352.129 438.811L294.634 541.92Z" fill="white"/>
<path fill-rule="evenodd" clip-rule="evenodd" d="M281.275 68.7058C459.065 156.498 208.281 336 353.245 436.84L487.313 196.847L393.062 196.808C409.715 106.331 320.444 74.3736 282.468 65.9433C279.265 65.3726 278.5 66.8122 281.275 68.7058ZM596.324 439.615H754.023L884.836 196.095H770.365L692.715 371.394H692.041L702.261 196.095H596.324V439.615ZM1141.75 233.266H1041.6L1006.18 361.174C1002.42 374.468 994.924 381.977 979.956 381.977C969.386 381.977 959.853 377.542 959.853 366.284C959.853 361.848 962.577 351.278 964.963 342.07L994.937 233.279H893.772L865.849 333.886C861.089 350.928 853.579 376.167 853.579 395.271C853.579 445.4 930.581 446.787 965.327 446.787C1050.81 446.787 1089.64 421.211 1101.91 376.517L1141.75 233.266ZM1124.8 439.615H1224.27L1292.37 184.824H1192.93L1124.8 439.615ZM1490.54 373.443C1466.01 377.529 1441.16 381.965 1416.62 381.965C1386.99 381.965 1376.78 376.504 1376.78 352.29C1376.78 343.081 1383.59 306.597 1435.7 306.597C1460.9 306.597 1484.08 308.997 1506.23 313.082L1527.33 239.064C1490.55 232.242 1453.08 226.094 1410.86 226.094C1355.66 226.094 1324.68 236.34 1299.48 279.646C1285.52 303.523 1271.89 349.229 1271.89 383.339C1271.89 441.327 1308.33 446.787 1356.7 446.787C1395.87 446.787 1435.71 443.714 1474.22 435.867L1490.54 373.443ZM1805.4 439.615H1906.19L1928.01 356.064C1936.19 324.677 1945.39 318.88 1964.48 318.88C1975.35 318.88 1984.54 322.965 1984.54 336.285C1984.54 344.132 1978.77 364.935 1975.35 377.218L1957.99 439.628H2060.87L2094.57 316.143C2098.66 301.824 2102.09 287.506 2102.09 273.874C2102.09 238.039 2071.76 226.094 2037.69 226.094C1994.43 226.094 1969.86 229.233 1949.08 267.792L1959.02 233.266H1860.23L1805.4 439.615ZM1670.29 291.747C1683.44 291.747 1697.69 297.039 1697.69 314.548C1697.69 323.51 1695.81 330.034 1694.32 337.764C1687.56 363.833 1674.41 381.757 1647 381.757C1631.22 381.757 1618.46 376.465 1618.46 356.92C1618.46 350.811 1619.95 343.872 1621.86 337.362C1630.47 307.635 1639.87 291.747 1670.29 291.747ZM1665.15 439.615H1764.6L1821.82 233.266H1722.37L1713.25 267.908H1712.57C1711.22 227.313 1683.86 226.081 1640.96 226.081C1593.62 226.081 1558.17 247.572 1542.17 293.952C1532.29 322.939 1521.39 355.338 1521.39 389.124C1521.39 431.418 1552.4 446.761 1590.52 446.761C1628.02 446.761 1657.17 438.085 1675.23 404.337H1675.91L1665.15 439.615ZM2213.32 360.344C2213.67 327.582 2223.9 291.436 2255.26 291.436C2281.89 291.436 2289.71 297.467 2289.71 317.051C2289.71 340.409 2279.15 381.446 2243.68 381.446C2223.55 381.433 2213.32 375.039 2213.32 360.344ZM2112.77 371.394C2112.77 442.689 2184.32 446.774 2239.84 446.774C2297.06 446.774 2341.34 437.553 2367.23 382.989C2381.18 352.964 2389.69 321.941 2389.69 288.504C2389.69 227.119 2308.31 226.094 2265.04 226.094C2186.69 226.094 2162.16 240.413 2144.46 267.377C2126.08 295.677 2112.77 336.947 2112.77 371.394Z" fill="white"/>
</svg>
